<svg width="20" height="18" viewBox="0 0 20 18" fill="current" xmlns="http://www.w3.org/2000/svg">
<path d="M10.0014 2.15298C11.0488 1.21542 12.4155 0.714614 13.8206 0.753485C15.2258 0.792356 16.5627 1.36795 17.5566 2.36198C18.5497 3.35491 19.1253 4.69008 19.1655 6.09381C19.2058 7.49754 18.7075 8.86349 17.7729 9.91165L9.99959 17.696L2.22809 9.91165C1.29241 8.86295 0.793695 7.49583 0.834333 6.09097C0.874972 4.68611 1.45188 3.35011 2.44662 2.35724C3.44136 1.36438 4.77845 0.789997 6.18338 0.752011C7.58832 0.714026 8.95449 1.21532 10.0014 2.15298ZM16.2586 3.65723C15.5964 2.99552 14.706 2.61231 13.7702 2.58623C12.8344 2.56015 11.9241 2.89317 11.2261 3.51698L10.0023 4.61515L8.77768 3.5179C8.07921 2.89334 7.16811 2.55995 6.2315 2.58621C5.29489 2.61246 4.40389 2.99637 3.74151 3.65907C3.08541 4.31513 2.70243 5.19553 2.66977 6.12279C2.63711 7.05005 2.9572 7.95522 3.56551 8.65582L10.0005 15.1009L16.4355 8.65673C17.0445 7.95586 17.3649 7.05004 17.3321 6.12213C17.2992 5.19421 16.9156 4.31331 16.2586 3.65723Z" fill="#828282"/>
</svg>
