<svg
  xmlns="http://www.w3.org/2000/svg"
  width="24"
  height="25"
  viewBox="0 0 24 25"
  fill="none"
>
  <path
    fill-rule="evenodd"
    clip-rule="evenodd"
    d="M0.75 4.145V20.8843C0.75 21.4595 0.9915 22.013 1.42875 22.4202C1.84575 22.808 2.40975 23.0292 3 23.0292H21C21.5903 23.0292 22.1542 22.808 22.5712 22.4202C23.0085 22.013 23.25 21.4595 23.25 20.8843V4.145C23.25 3.56975 23.0085 3.01625 22.5712 2.609C22.1542 2.22125 21.5903 2 21 2C17.1345 2 6.8655 2 3 2C2.40975 2 1.84575 2.22125 1.42875 2.609C0.9915 3.01625 0.75 3.56975 0.75 4.145ZM21.75 7.97075V20.8843C21.75 21.0493 21.675 21.2052 21.5497 21.3215C21.4042 21.4565 21.2055 21.5292 21 21.5292H3C2.7945 21.5292 2.59575 21.4565 2.45025 21.3215C2.325 21.2052 2.25 21.0493 2.25 20.8843V7.97075H21.75ZM21.75 6.47075H2.25V4.145C2.25 3.98 2.325 3.824 2.45025 3.70775C2.59575 3.57275 2.7945 3.5 3 3.5H21C21.2055 3.5 21.4042 3.57275 21.5497 3.70775C21.675 3.824 21.75 3.98 21.75 4.145V6.47075Z"
    fill="#000"
  />
  <path
    fill-rule="evenodd"
    clip-rule="evenodd"
    d="M16.5 5.75H17.25C17.664 5.75 18 5.414 18 5C18 4.586 17.664 4.25 17.25 4.25H16.5C16.086 4.25 15.75 4.586 15.75 5C15.75 5.414 16.086 5.75 16.5 5.75Z"
    fill="#000"
  />
  <path
    fill-rule="evenodd"
    clip-rule="evenodd"
    d="M19.5 5.75H20.25C20.664 5.75 21 5.414 21 5C21 4.586 20.664 4.25 20.25 4.25H19.5C19.086 4.25 18.75 4.586 18.75 5C18.75 5.414 19.086 5.75 19.5 5.75Z"
    fill="#000"
  />
  <path
    fill-rule="evenodd"
    clip-rule="evenodd"
    d="M20.25 12.5V11C20.25 10.6025 20.0917 10.2208 19.8105 9.9395C19.5292 9.65825 19.1475 9.5 18.75 9.5C16.1895 9.5 7.8105 9.5 5.25 9.5C4.8525 9.5 4.47075 9.65825 4.1895 9.9395C3.90825 10.2208 3.75 10.6025 3.75 11V12.5C3.75 12.8975 3.90825 13.2792 4.1895 13.5605C4.47075 13.8417 4.8525 14 5.25 14H18.75C19.1475 14 19.5292 13.8417 19.8105 13.5605C20.0917 13.2792 20.25 12.8975 20.25 12.5ZM5.25 12.5V11H18.75V12.5H5.25Z"
    fill="#000"
  />
  <path
    fill-rule="evenodd"
    clip-rule="evenodd"
    d="M12.75 18.5V17C12.75 16.1712 12.0787 15.5 11.25 15.5H5.25C4.42125 15.5 3.75 16.1712 3.75 17V18.5C3.75 19.3288 4.42125 20 5.25 20H11.25C12.0787 20 12.75 19.3288 12.75 18.5ZM5.25 18.5H11.25V17H5.25V18.5Z"
    fill="#000"
  />
</svg>

