<svg width="20" height="20" viewBox="0 0 20 20" fill="none" xmlns="http://www.w3.org/2000/svg">
<path d="M17.645 7.54361L4.81165 1.12695C4.30518 0.874872 3.7333 0.785132 3.17396 0.869961C2.61463 0.95479 2.09507 1.21006 1.68612 1.60097C1.27717 1.99188 0.998731 2.4994 0.888768 3.05434C0.778804 3.60928 0.842667 4.18463 1.07165 4.70195L3.27165 9.62445C3.32157 9.74346 3.34728 9.87122 3.34728 10.0003C3.34728 10.1293 3.32157 10.2571 3.27165 10.3761L1.07165 15.2986C0.885291 15.7173 0.806509 16.1759 0.842462 16.6327C0.878415 17.0895 1.02796 17.5302 1.27752 17.9145C1.52707 18.2989 1.86871 18.6148 2.2714 18.8335C2.67409 19.0522 3.12506 19.1668 3.58332 19.1669C4.01253 19.1627 4.43535 19.0624 4.82082 18.8736L17.6541 12.4569C18.1094 12.228 18.492 11.877 18.7594 11.4432C19.0267 11.0094 19.1683 10.5098 19.1683 10.0003C19.1683 9.49071 19.0267 8.99117 18.7594 8.55738C18.492 8.12358 18.1094 7.77261 17.6541 7.54361H17.645ZM16.8291 10.8161L3.99582 17.2328C3.8273 17.3137 3.63807 17.3412 3.4535 17.3115C3.26894 17.2818 3.09786 17.1964 2.9632 17.0667C2.82855 16.9371 2.73676 16.7693 2.70014 16.586C2.66351 16.4027 2.68382 16.2126 2.75832 16.0411L4.94915 11.1186C4.97751 11.0529 5.002 10.9855 5.02248 10.9169H11.3383C11.5814 10.9169 11.8146 10.8204 11.9865 10.6485C12.1584 10.4766 12.255 10.2434 12.255 10.0003C12.255 9.75717 12.1584 9.52401 11.9865 9.3521C11.8146 9.18019 11.5814 9.08361 11.3383 9.08361H5.02248C5.002 9.01502 4.97751 8.94768 4.94915 8.88195L2.75832 3.95945C2.68382 3.788 2.66351 3.59787 2.70014 3.41455C2.73676 3.23124 2.82855 3.0635 2.9632 2.93383C3.09786 2.80417 3.26894 2.71877 3.4535 2.68909C3.63807 2.65941 3.8273 2.68687 3.99582 2.76778L16.8291 9.18445C16.9793 9.26137 17.1053 9.37824 17.1933 9.52219C17.2813 9.66613 17.3279 9.83157 17.3279 10.0003C17.3279 10.169 17.2813 10.3344 17.1933 10.4784C17.1053 10.6223 16.9793 10.7392 16.8291 10.8161V10.8161Z" fill="#E22828"/>
</svg>
